<?xml version="1.0" encoding="UTF-8"?>
<svg width="195px" height="35px" viewBox="0 0 195 35" version="1.1" xmlns="http://www.w3.org/2000/svg" xmlns:xlink="http://www.w3.org/1999/xlink">
    <!-- Generator: Sketch 53.2 (72643) - https://sketchapp.com -->
    <title>logo</title>
    <desc>Created with Sketch.</desc>
    <g id="Mobile" stroke="none" stroke-width="1" fill="none" fill-rule="evenodd">
        <g id="Home" transform="translate(-90.000000, -325.000000)" fill="#7159C1" fill-rule="nonzero">
            <g id="Group" transform="translate(30.000000, 325.000000)">
                <g id="logo" transform="translate(60.000000, 0.000000)">
                    <g id="Group-3">
                    <text x="50" y="30" size="5" font-size="24" style="font-family:Sans,Arial" fill="#7159C1">OSF Global</text>
                        <path d="M7.97322498,13.4955137 L19.0000238,20.3035575 L11.3660862,26.6651722 L0.428573132,19.544628 L7.97322498,13.4955137 Z M29.9821798,25.8839213 L29.9821798,28.2946384 L19.0446668,34.8348248 L19.0446668,34.8571463 L19.0223453,34.8348248 L19.0000238,34.8571463 L19.0000238,34.8348248 L8.08483226,28.2946384 L8.08483226,25.8839213 L11.3660862,28.026781 L19.0000238,21.6874877 L19.0000238,21.6428448 L19.0223453,21.6651663 L19.0446668,21.6428448 L19.0446668,21.6874877 L26.7009259,28.026781 L29.9821798,25.8839213 Z M11.3660862,0.348176554 L19.0000238,6.70979128 L7.97322498,13.4955137 L0.428573132,7.46872076 L11.3660862,0.348176554 Z M30.0268227,13.4955137 L37.5714746,19.544628 L26.656283,26.6651722 L19.0000238,20.3035575 L30.0268227,13.4955137 Z M26.656283,0.348176554 L37.5714746,7.46872076 L30.0268227,13.4955137 L19.0000238,6.70979128 L26.656283,0.348176554 Z" id=""></path>
                    </g>
                </g>
            </g>
        </g>
    </g>
</svg>